<?xml version="1.0" encoding="UTF-8" standalone="no"?>
<!DOCTYPE svg PUBLIC "-//W3C//DTD SVG 1.1//EN" "http://www.w3.org/Graphics/SVG/1.1/DTD/svg11.dtd">
<svg width="100%" height="100%" viewBox="0 0 1418 1418" version="1.1" xmlns="http://www.w3.org/2000/svg" xmlns:xlink="http://www.w3.org/1999/xlink" xml:space="preserve" xmlns:serif="http://www.serif.com/" style="fill-rule:evenodd;clip-rule:evenodd;stroke-linejoin:round;stroke-miterlimit:1.41421;">
    <g transform="matrix(2.59969,0,0,2.59969,-1509.56,-707.32)">
        <g transform="matrix(0.383128,0.305386,-0.305386,0.383128,959.929,107.263)">
            <g transform="matrix(1.55287,0,0,1,-183.967,0)">
                <rect x="332.746" y="658.348" width="30.053" height="297.989"/>
            </g>
            <g>
                <g transform="matrix(0.875086,0,0,0.813667,44.4795,133.611)">
                    <path d="M297.109,502.822L297.109,564.291C297.109,580.564 310.321,593.776 326.595,593.776L385.566,593.776C401.84,593.776 415.052,580.564 415.052,564.291L415.052,502.822C434.167,519.709 446.268,544.652 446.268,572.458C446.268,623.27 405.856,664.524 356.081,664.524C306.305,664.524 265.893,623.27 265.893,572.458C265.893,544.652 277.994,519.709 297.109,502.822Z"/>
                </g>
                <g transform="matrix(1,0,0,1,-5.58899,14.5337)">
                    <ellipse cx="361.67" cy="625.648" rx="28.923" ry="5.305" style="fill:rgb(88,84,83);"/>
                </g>
            </g>
            <g transform="matrix(-1,-5.55112e-16,5.55112e-16,-1,712.161,1614.69)">
                <g transform="matrix(0.875086,0,0,0.813667,44.4795,133.611)">
                    <path d="M297.109,502.822L297.109,564.291C297.109,580.564 310.321,593.776 326.595,593.776L385.566,593.776C401.84,593.776 415.052,580.564 415.052,564.291L415.052,502.822C434.167,519.709 446.268,544.652 446.268,572.458C446.268,623.27 405.856,664.524 356.081,664.524C306.305,664.524 265.893,623.27 265.893,572.458C265.893,544.652 277.994,519.709 297.109,502.822Z"/>
                </g>
                <g transform="matrix(1,0,0,1,-5.58899,14.5337)">
                    <ellipse cx="361.67" cy="625.648" rx="28.923" ry="5.305" style="fill:rgb(88,84,83);"/>
                </g>
            </g>
            <g transform="matrix(1,0,0,0.983817,-5.10851,14.8793)">
                <path d="M366.298,672.877C366.298,671.444 365.153,670.28 363.743,670.28L358.635,670.28C357.225,670.28 356.081,671.444 356.081,672.877L356.081,933.745C356.081,935.178 357.225,936.341 358.635,936.341L363.743,936.341C365.153,936.341 366.298,935.178 366.298,933.745L366.298,672.877Z" style="fill:rgb(88,84,83);"/>
            </g>
        </g>
        <g transform="matrix(1.27457,0,0,1.27457,-170.82,-199.623)">
            <path d="M890.285,727.044L622.141,727.044L622.141,727.018L711.234,727.018L622.141,568.768L622.141,568.734L711.234,410.525L622.141,410.517L622.141,410.508L979.378,410.508L979.378,410.525L890.285,410.517L979.359,568.776L979.378,568.742L979.378,568.793L890.285,727.044ZM800.759,457.367C862.248,457.367 912.168,507.288 912.168,568.776C912.168,630.264 862.248,680.185 800.759,680.185C739.271,680.185 689.35,630.264 689.35,568.776C689.35,507.288 739.271,457.367 800.759,457.367Z"/>
        </g>
    </g>
</svg>
